<svg width="8" height="10" viewBox="0 0 8 10" fill="none" xmlns="http://www.w3.org/2000/svg">
<g id="Location">
<path id="Location_2" fill-rule="evenodd" clip-rule="evenodd" d="M4.01192 0.833517C2.09149 0.826993 0.522875 2.35489 0.46018 4.26739L0.458252 4.3861C0.490172 5.32353 0.809116 6.21712 1.37087 6.95334L1.5028 7.12551C2.039 7.80729 2.67622 8.40572 3.3917 8.89896L3.56397 9.01492L3.5891 9.03466C3.83433 9.21086 4.16544 9.21086 4.41067 9.03466L4.43159 9.01747C4.99932 8.64928 5.52283 8.21667 5.99178 7.7282C6.94517 6.719 7.5198 5.58818 7.54149 4.43974L7.54154 4.3971C7.54805 2.4718 6.02485 0.898359 4.11823 0.83545L4.01192 0.833517ZM4.00978 1.46574C5.58416 1.47113 6.86242 2.72906 6.90988 4.2956L6.91123 4.43372C6.89299 5.39657 6.38886 6.38865 5.53601 7.29144C5.10114 7.7444 4.61356 8.14704 4.08474 8.48949L4.04949 8.51599C4.02101 8.5407 3.97877 8.5407 3.95029 8.51599L3.91603 8.49013C3.12824 7.97579 2.43682 7.3264 1.8734 6.57168C1.41958 5.97688 1.15065 5.26571 1.09652 4.52384L1.08857 4.37508C1.09391 2.79689 2.34797 1.51471 3.90969 1.4671L4.00978 1.46574ZM3.99989 3.08403C3.25472 3.08403 2.65065 3.68997 2.65065 4.43744C2.65065 5.1849 3.25472 5.79084 3.99989 5.79084C4.74505 5.79084 5.34913 5.1849 5.34913 4.43744C5.34913 3.68997 4.74505 3.08403 3.99989 3.08403ZM3.99989 3.71629C4.39694 3.71629 4.71881 4.03916 4.71881 4.43744C4.71881 4.83571 4.39694 5.15858 3.99989 5.15858C3.60284 5.15858 3.28096 4.83571 3.28096 4.43744C3.28096 4.03916 3.60284 3.71629 3.99989 3.71629Z" fill="#2C2825"/>
</g>
</svg>
