<svg width="10" height="8" viewBox="0 0 10 8" fill="none" xmlns="http://www.w3.org/2000/svg">
<g id="Group">
<path id="Vector" d="M9.7001 4.8002C9.3501 4.3002 8.8001 4.2002 8.6501 4.1502L8.3001 3.2502C8.4501 3.3002 8.6001 3.3502 8.7501 3.3502C8.8501 3.3502 8.9501 3.3502 9.0001 3.3002C9.1001 3.3002 9.1501 3.2002 9.1501 3.1502C9.4001 2.4502 9.2501 1.8502 8.7501 1.3002C8.7001 1.2502 8.6001 1.2002 8.5501 1.2502C8.3001 1.3002 8.0501 1.5002 7.8501 1.7002C7.8001 1.7502 7.8001 1.8002 7.7501 1.8502L7.6501 1.6002L7.3001 0.700195C7.2001 0.400195 6.8501 0.200195 6.5501 0.200195H5.5501C5.4001 0.200195 5.3001 0.300195 5.3001 0.450195C5.3001 0.600195 5.4001 0.700195 5.5501 0.700195H6.5501C6.6501 0.700195 6.8001 0.800195 6.8501 0.900195L7.0001 1.5002H6.8501C6.6001 1.5002 6.3501 1.6002 6.2001 1.7502C6.0501 1.9502 5.9501 2.1502 5.9501 2.4002L6.0001 4.5002C6.0001 4.7002 5.8501 4.85019 5.6501 4.85019H5.2001C5.0001 4.85019 4.8001 4.7502 4.7501 4.5502L4.4501 3.9002C4.3501 3.7502 4.2501 3.6002 4.1001 3.5002C4.4001 3.3002 4.5501 2.9502 4.5501 2.5502V1.4002C4.5501 1.1002 4.4501 0.800195 4.2501 0.600195C4.0501 0.400195 3.8001 0.250195 3.4501 0.300195H1.7001C1.4001 0.300195 1.1001 0.400195 0.900098 0.600195C0.700098 0.800195 0.600098 1.1002 0.600098 1.4002V2.5502C0.600098 2.8502 0.700098 3.1502 0.900098 3.3502C1.0001 3.5002 1.1501 3.5502 1.3001 3.6002C0.900098 3.9502 0.650098 4.4502 0.650098 5.0002V6.2002C0.650098 6.3502 0.750098 6.4502 0.900098 6.4502H1.5001C1.6001 7.1502 2.2001 7.7502 2.9501 7.7502C3.7001 7.7502 4.3001 7.2002 4.4001 6.4502H6.5001C6.6001 7.1502 7.2001 7.7502 7.9501 7.7502C8.7501 7.7502 9.4001 7.1002 9.4001 6.3002C9.4001 5.7502 9.0501 5.2502 8.6001 5.0002C8.7001 4.9002 8.7501 4.8002 8.7501 4.7002C8.9001 4.7502 9.2001 4.85019 9.3501 5.10019C9.4001 5.1502 9.4501 5.2002 9.5501 5.2002C9.6001 5.2002 9.6501 5.2002 9.7001 5.1502C9.7501 5.0502 9.7501 4.9002 9.7001 4.8002ZM8.2001 2.0502C8.3001 1.9502 8.4001 1.8502 8.5001 1.8002C8.8001 2.1002 8.8501 2.4502 8.7501 2.9002C8.6001 2.9002 8.5001 2.9002 8.3501 2.8002C8.2501 2.7502 8.1001 2.6502 8.0501 2.5002C8.0501 2.3502 8.1001 2.1502 8.2001 2.0502ZM1.1001 2.6002V1.4502C1.1001 1.2502 1.1501 1.1002 1.2501 1.0002C1.3501 0.850195 1.5001 0.800195 1.7001 0.800195H3.4501C3.6001 0.800195 3.8001 0.850195 3.9001 0.950195C4.0001 1.0502 4.0501 1.2002 4.0501 1.4002V2.5502C4.0501 2.9502 3.8001 3.2002 3.4501 3.2002H1.7001C1.5001 3.2002 1.3501 3.1502 1.2501 3.0502C1.1501 2.9502 1.1001 2.7502 1.1001 2.6002ZM1.1001 5.0002C1.1001 4.2502 1.7001 3.7002 2.4001 3.7002H3.3001C3.6001 3.7002 3.8501 3.8502 4.0001 4.1502L4.3001 4.8002C4.4501 5.1502 4.8001 5.35019 5.2001 5.35019H5.6501C6.1001 5.35019 6.4501 5.0002 6.5001 4.5502L6.4501 2.4502C6.4501 2.3502 6.5001 2.2002 6.6001 2.1502C6.6501 2.0502 6.8001 2.0002 6.9001 2.0002H7.2001L8.2001 4.4502C8.2501 4.5502 8.2001 4.6502 8.1501 4.7502L6.8501 5.9002C6.8001 5.9502 6.7501 5.9502 6.7001 5.9502H1.1001V5.0002ZM2.8501 7.2502C2.4001 7.2502 2.0001 6.9002 1.9001 6.4502H3.8001C3.7501 6.9002 3.3501 7.2502 2.8501 7.2502ZM8.9001 6.3002C8.9001 6.8502 8.4501 7.2502 7.9501 7.2502C7.4501 7.2502 7.0501 6.85019 7.0001 6.4002C7.0501 6.35019 7.1501 6.3502 7.2001 6.2502L7.4501 6.0502L7.8001 6.4502C7.8501 6.5002 7.9001 6.5502 8.0001 6.5502C8.0501 6.5502 8.1001 6.5502 8.1501 6.5002C8.2501 6.4002 8.2501 6.2502 8.2001 6.1502L7.8501 5.7502L8.2501 5.4002C8.6001 5.4502 8.9001 5.8502 8.9001 6.3002Z" fill="#2C2825"/>
<path id="Vector_2" d="M2.2002 1.8501H3.0002C3.1502 1.8501 3.2502 1.7501 3.2502 1.6001C3.2502 1.4501 3.1002 1.3501 2.9502 1.3501H2.2002C2.0502 1.3501 1.9502 1.4501 1.9502 1.6001C1.9502 1.7501 2.0502 1.8501 2.2002 1.8501Z" fill="#2C2825"/>
</g>
</svg>
