<svg width="10" height="10" viewBox="0 0 10 10" fill="none" xmlns="http://www.w3.org/2000/svg">
<g id="vuesax/linear/heart">
<g id="heart">
<path id="Vector (Stroke)" fill-rule="evenodd" clip-rule="evenodd" d="M3.14992 1.604C2.0448 1.604 1.14575 2.5043 1.14575 3.62067C1.14575 4.97505 1.77104 6.06022 2.55793 6.86646C3.3486 7.67657 4.28323 8.18399 4.84255 8.37493L4.8456 8.37597L4.84559 8.37599C4.87258 8.38551 4.92851 8.39567 4.99992 8.39567C5.07133 8.39567 5.12726 8.38551 5.15425 8.37599L5.15729 8.37491L5.15729 8.37493C5.71661 8.18399 6.65124 7.67657 7.44191 6.86646C8.2288 6.06022 8.85409 4.97505 8.85409 3.62067C8.85409 2.5043 7.95504 1.604 6.84992 1.604C6.199 1.604 5.61533 1.9203 5.2508 2.41115C5.19185 2.49054 5.0988 2.53734 4.99992 2.53734C4.90104 2.53734 4.80799 2.49054 4.74904 2.41115C4.38431 1.92004 3.8047 1.604 3.14992 1.604ZM0.520752 3.62067C0.520752 2.16204 1.6967 0.979004 3.14992 0.979004C3.87356 0.979004 4.52682 1.27316 5.00005 1.74764C5.47428 1.27302 6.12999 0.979004 6.84992 0.979004C8.30313 0.979004 9.47909 2.16204 9.47909 3.62067C9.47909 5.18296 8.75437 6.41654 7.88918 7.303C7.02838 8.18497 6.00969 8.74405 5.36061 8.96593C5.24632 9.00597 5.11545 9.02067 4.99992 9.02067C4.88438 9.02067 4.75352 9.00597 4.63923 8.96593C3.99015 8.74405 2.97146 8.18497 2.11066 7.303C1.24547 6.41654 0.520752 5.18296 0.520752 3.62067Z" fill="#2C2825"/>
</g>
</g>
</svg>
