<svg width="10" height="8" viewBox="0 0 10 8" fill="none" xmlns="http://www.w3.org/2000/svg">
<g id="Star">
<path id="Star_2" fill-rule="evenodd" clip-rule="evenodd" d="M2.25867 7.62484C2.36867 7.83025 2.58325 7.95859 2.81659 7.95817C2.91492 7.95859 3.01242 7.93567 3.09992 7.8915L4.99658 6.89984C5.00159 6.89692 5.00742 6.89525 5.01325 6.89567L6.897 7.879C6.98825 7.92817 7.09034 7.95359 7.19367 7.95317C7.22659 7.95317 7.25992 7.95025 7.29242 7.94567C7.63159 7.89025 7.86325 7.57275 7.81325 7.23317L7.44659 5.14567C7.44446 5.14263 7.44388 5.14247 7.44373 5.14213C7.44367 5.142 7.44367 5.14184 7.44367 5.1415C7.44367 5.14025 7.44659 5.13734 7.44659 5.13734L8.97575 3.65817C9.20158 3.44025 9.23034 3.089 9.04242 2.83734C8.94034 2.70567 8.79075 2.619 8.62575 2.59567L6.51659 2.2915C6.51284 2.2915 6.50867 2.28734 6.5045 2.28317L5.56242 0.391504C5.45617 0.177754 5.23867 0.0427539 4.99992 0.0415039C4.93075 0.0415039 4.86159 0.0523372 4.79575 0.0748372C4.63784 0.128587 4.50742 0.241921 4.43325 0.391504L3.49242 2.27775C3.49242 2.2865 3.48367 2.29025 3.47534 2.29025L1.37117 2.59442C1.24242 2.61609 1.12242 2.67359 1.02534 2.76109C0.902419 2.8815 0.833252 3.04692 0.833252 3.21942C0.833669 3.38317 0.899502 3.53984 1.01659 3.654L2.55825 5.13734C2.56159 5.14067 2.56284 5.14525 2.56284 5.14984L2.19159 7.229C2.1695 7.36484 2.19325 7.504 2.25867 7.62484ZM4.98784 0.652754L4.992 0.649837H4.99992L5.00367 0.653587C5.00742 0.653587 5.01075 0.654421 5.01367 0.656921C5.01617 0.659421 5.01742 0.662754 5.017 0.666504L5.95867 2.54942C6.04909 2.73484 6.22492 2.864 6.42909 2.89525L8.53825 3.20192C8.542 3.20192 8.54575 3.20275 8.54909 3.20442C8.55117 3.20484 8.55283 3.20484 8.55492 3.20442L8.55909 3.20817L8.55492 3.21734L7.02575 4.70025C6.87367 4.84275 6.80575 5.05359 6.84617 5.25817L7.21325 7.33359L7.20492 7.3415H7.19617C7.1945 7.34234 7.19284 7.34234 7.19117 7.3415C7.187 7.34109 7.18284 7.33942 7.17909 7.33734H7.17534L5.30034 6.35817C5.21034 6.3115 5.11034 6.2865 5.00867 6.28692C4.90409 6.28692 4.80075 6.31317 4.70825 6.36234L2.82117 7.35192C2.81909 7.35234 2.81659 7.35234 2.8145 7.35192C2.80575 7.35192 2.79825 7.34609 2.79617 7.33775V7.32942L3.16284 5.25442C3.197 5.0515 3.13034 4.84442 2.98367 4.70025L1.442 3.22109C1.44159 3.21484 1.44242 3.20942 1.44575 3.204L1.47117 3.19567L3.567 2.89525C3.77117 2.86359 3.94659 2.73484 4.03742 2.54942L4.9795 0.661921C4.98159 0.658171 4.98409 0.654837 4.98784 0.652754Z" fill="#2C2825"/>
</g>
</svg>
